<?xml version="1.0" encoding="UTF-8" standalone="no"?>
<!-- Created with Inkscape (http://www.inkscape.org/) -->

<svg
   width="256"
   height="256"
   viewBox="0 0 67.73333 67.733334"
   version="1.1"
   id="svg5"
   inkscape:version="1.2.2 (732a01da63, 2022-12-09)"
   sodipodi:docname="app.svg"
   inkscape:export-filename="app.png"
   inkscape:export-xdpi="96"
   inkscape:export-ydpi="96"
   xmlns:inkscape="http://www.inkscape.org/namespaces/inkscape"
   xmlns:sodipodi="http://sodipodi.sourceforge.net/DTD/sodipodi-0.dtd"
   xmlns="http://www.w3.org/2000/svg"
   xmlns:svg="http://www.w3.org/2000/svg">
  <sodipodi:namedview
     id="namedview7"
     pagecolor="#ffffff"
     bordercolor="#000000"
     borderopacity="0.25"
     inkscape:showpageshadow="2"
     inkscape:pageopacity="0.0"
     inkscape:pagecheckerboard="0"
     inkscape:deskcolor="#d1d1d1"
     inkscape:document-units="mm"
     showgrid="false"
     inkscape:zoom="2"
     inkscape:cx="161.75"
     inkscape:cy="114"
     inkscape:window-width="2560"
     inkscape:window-height="1017"
     inkscape:window-x="-8"
     inkscape:window-y="-8"
     inkscape:window-maximized="1"
     inkscape:current-layer="g4338" />
  <defs
     id="defs2" />
  <g
     inkscape:label="Warstwa 1"
     inkscape:groupmode="layer"
     id="layer1">
    <g
       id="g4338"
       transform="matrix(19.737653,0,0,19.745267,99.618578,10.122029)"
       inkscape:export-filename="app.png"
       inkscape:export-xdpi="96"
       inkscape:export-ydpi="96">
      <path
         id="path3601"
         style="fill:#784421;fill-opacity:1;stroke-width:0;stroke-linecap:square;stroke-linejoin:round;stroke-dasharray:none;paint-order:fill markers stroke"
         d="m -3.966799,-0.29683495 c -0.1781507,0 -0.3214275,0.1437935 -0.3214275,0.32194421 V 2.5252151 c 0,0.1781506 0.1432768,0.3219441 0.3214275,0.3219441 h 1.3859619 c 0.1781506,0 0.3219442,-0.1437935 0.3219442,-0.3219441 V 0.02510926 c 0,-0.17815071 -0.1437936,-0.32194421 -0.3219442,-0.32194421 z m 0.1364257,0.1297079 a 0.15289758,0.15289758 0 0 1 0.1529623,0.15296221 0.15289758,0.15289758 0 0 1 -0.1529623,0.1529623 0.15289758,0.15289758 0 0 1 -0.1529622,-0.1529623 0.15289758,0.15289758 0 0 1 0.1529622,-0.15296221 z m 0.5937623,0 a 0.15289758,0.15289758 0 0 1 0.1529622,0.15296221 0.15289758,0.15289758 0 0 1 -0.1529622,0.1529623 0.15289758,0.15289758 0 0 1 -0.1529623,-0.1529623 0.15289758,0.15289758 0 0 1 0.1529623,-0.15296221 z m 0.5937622,0 a 0.15289758,0.15289758 0 0 1 0.1529622,0.15296221 0.15289758,0.15289758 0 0 1 -0.1529622,0.1529623 0.15289758,0.15289758 0 0 1 -0.1529623,-0.1529623 0.15289758,0.15289758 0 0 1 0.1529623,-0.15296221 z" />
      <path
         id="path3951"
         style="fill:#c2c2c2;fill-opacity:1;stroke-width:0;stroke-linecap:square;stroke-linejoin:round;stroke-dasharray:none;paint-order:fill markers stroke"
         d="m -3.9960317,-0.283756 c -0.1781507,0 -0.3214274,0.1437935 -0.3214274,0.3219442 V 2.538294 c 0,0.1781506 0.1432767,0.3219441 0.3214274,0.3219441 h 1.3859619 c 0.1781506,0 0.3219442,-0.1437935 0.3219442,-0.3219441 V 0.0381882 c 0,-0.1781507 -0.1437936,-0.3219442 -0.3219442,-0.3219442 z m 0.1364257,0.1297079 a 0.15289758,0.15289758 0 0 1 0.1529623,0.1529622 0.15289758,0.15289758 0 0 1 -0.1529623,0.1529623 0.15289758,0.15289758 0 0 1 -0.1529622,-0.1529623 0.15289758,0.15289758 0 0 1 0.1529622,-0.1529622 z m 0.5937623,0 a 0.15289758,0.15289758 0 0 1 0.1529622,0.1529622 0.15289758,0.15289758 0 0 1 -0.1529622,0.1529623 0.15289758,0.15289758 0 0 1 -0.1529623,-0.1529623 0.15289758,0.15289758 0 0 1 0.1529623,-0.1529622 z m 0.5937622,0 a 0.15289758,0.15289758 0 0 1 0.1529622,0.1529622 0.15289758,0.15289758 0 0 1 -0.1529622,0.1529623 0.15289758,0.15289758 0 0 1 -0.1529623,-0.1529623 0.15289758,0.15289758 0 0 1 0.1529623,-0.1529622 z" />
      <path
         id="path3963"
         style="fill:#d2d2d2;fill-opacity:1;stroke-width:0;stroke-linecap:square;stroke-linejoin:round;stroke-dasharray:none;paint-order:fill markers stroke"
         d="m -4.0164945,-0.2691397 c -0.1781507,0 -0.3214274,0.1437935 -0.3214274,0.3219442 v 2.5001057 c 0,0.1781506 0.1432767,0.3219441 0.3214274,0.3219441 h 1.3859618 c 0.1781506,0 0.3219442,-0.1437935 0.3219442,-0.3219441 V 0.0528045 c 0,-0.1781507 -0.1437936,-0.3219442 -0.3219442,-0.3219442 z m 0.1364256,0.1297079 a 0.15289758,0.15289758 0 0 1 0.1529623,0.1529622 0.15289758,0.15289758 0 0 1 -0.1529623,0.1529623 0.15289758,0.15289758 0 0 1 -0.1529621,-0.1529623 0.15289758,0.15289758 0 0 1 0.1529621,-0.1529622 z m 0.5937623,0 a 0.15289758,0.15289758 0 0 1 0.1529622,0.1529622 0.15289758,0.15289758 0 0 1 -0.1529622,0.1529623 0.15289758,0.15289758 0 0 1 -0.1529623,-0.1529623 0.15289758,0.15289758 0 0 1 0.1529623,-0.1529622 z m 0.5937622,0 a 0.15289758,0.15289758 0 0 1 0.1529622,0.1529622 0.15289758,0.15289758 0 0 1 -0.1529622,0.1529623 0.15289758,0.15289758 0 0 1 -0.1529623,-0.1529623 0.15289758,0.15289758 0 0 1 0.1529623,-0.1529622 z" />
      <path
         id="path3967"
         style="fill:#dedede;fill-opacity:1;stroke-width:0;stroke-linecap:square;stroke-linejoin:round;stroke-dasharray:none;paint-order:fill markers stroke"
         d="m -4.0398806,-0.2545234 c -0.1781507,0 -0.3214274,0.1437935 -0.3214274,0.3219442 v 2.5001057 c 0,0.1781506 0.1432767,0.3219441 0.3214274,0.3219441 h 1.3859618 c 0.1781506,0 0.3219442,-0.1437935 0.3219442,-0.3219441 V 0.0674208 c 0,-0.1781507 -0.1437936,-0.3219442 -0.3219442,-0.3219442 z m 0.1364256,0.1297079 A 0.15289758,0.15289758 0 0 1 -3.7504927,0.0281467 0.15289758,0.15289758 0 0 1 -3.903455,0.181109 0.15289758,0.15289758 0 0 1 -4.0564171,0.0281467 0.15289758,0.15289758 0 0 1 -3.903455,-0.1248155 Z m 0.5937623,0 A 0.15289758,0.15289758 0 0 1 -3.1567305,0.0281467 0.15289758,0.15289758 0 0 1 -3.3096927,0.181109 0.15289758,0.15289758 0 0 1 -3.462655,0.0281467 0.15289758,0.15289758 0 0 1 -3.3096927,-0.1248155 Z m 0.5937622,0 a 0.15289758,0.15289758 0 0 1 0.1529622,0.1529622 0.15289758,0.15289758 0 0 1 -0.1529622,0.1529623 0.15289758,0.15289758 0 0 1 -0.1529623,-0.1529623 0.15289758,0.15289758 0 0 1 0.1529623,-0.1529622 z" />
      <path
         id="path3972"
         style="fill:#ebebeb;fill-opacity:1;stroke-width:0;stroke-linecap:square;stroke-linejoin:round;stroke-dasharray:none;paint-order:fill markers stroke"
         d="m -4.0574201,-0.23698384 c -0.1781507,0 -0.3214274,0.1437935 -0.3214274,0.3219442 V 2.5850661 c 0,0.1781506 0.1432767,0.3219441 0.3214274,0.3219441 h 1.3859617 c 0.1781506,0 0.3219442,-0.1437935 0.3219442,-0.3219441 V 0.08496036 c 0,-0.1781507 -0.1437936,-0.3219442 -0.3219442,-0.3219442 z m 0.1364255,0.1297079 a 0.15289758,0.15289758 0 0 1 0.1529623,0.1529622 0.15289758,0.15289758 0 0 1 -0.1529623,0.1529623 0.15289758,0.15289758 0 0 1 -0.152962,-0.1529623 0.15289758,0.15289758 0 0 1 0.152962,-0.1529622 z m 0.5937623,0 a 0.15289758,0.15289758 0 0 1 0.1529622,0.1529622 0.15289758,0.15289758 0 0 1 -0.1529622,0.1529623 0.15289758,0.15289758 0 0 1 -0.1529623,-0.1529623 0.15289758,0.15289758 0 0 1 0.1529623,-0.1529622 z m 0.5937622,0 a 0.15289758,0.15289758 0 0 1 0.1529622,0.1529622 0.15289758,0.15289758 0 0 1 -0.1529622,0.1529623 0.15289758,0.15289758 0 0 1 -0.1529623,-0.1529623 0.15289758,0.15289758 0 0 1 0.1529623,-0.1529622 z" />
      <path
         id="rect2797"
         style="display:inline;fill:#a05a2c;fill-opacity:1;stroke-width:0;stroke-linecap:square;stroke-linejoin:round;stroke-dasharray:none;paint-order:fill markers stroke"
         d="m -4.0822663,-0.22626682 c -0.1781507,0 -0.3214274,0.1437935 -0.3214274,0.3219442 V 2.5957832 c 0,0.1781506 0.1432767,0.3219441 0.3214274,0.3219441 h 1.3859619 c 0.1781506,0 0.3219442,-0.1437935 0.3219442,-0.3219441 V 0.09567738 c 0,-0.1781507 -0.1437936,-0.3219442 -0.3219442,-0.3219442 z m 0.1364257,0.1297079 a 0.15289758,0.15289758 0 0 1 0.1529623,0.1529622 0.15289758,0.15289758 0 0 1 -0.1529623,0.1529623 0.15289758,0.15289758 0 0 1 -0.1529622,-0.1529623 0.15289758,0.15289758 0 0 1 0.1529622,-0.1529622 z m 0.5937623,0 a 0.15289758,0.15289758 0 0 1 0.1529622,0.1529622 0.15289758,0.15289758 0 0 1 -0.1529622,0.1529623 0.15289758,0.15289758 0 0 1 -0.1529623,-0.1529623 0.15289758,0.15289758 0 0 1 0.1529623,-0.1529622 z m 0.5937622,0 a 0.15289758,0.15289758 0 0 1 0.1529622,0.1529622 0.15289758,0.15289758 0 0 1 -0.1529622,0.1529623 0.15289758,0.15289758 0 0 1 -0.1529623,-0.1529623 0.15289758,0.15289758 0 0 1 0.1529623,-0.1529622 z" />
      <path
         id="path3676"
         style="fill:#808080;fill-opacity:1;stroke-width:0;stroke-linecap:square;stroke-linejoin:round;stroke-dasharray:none;paint-order:fill markers stroke"
         d="m -3.3305461,-0.51263021 a 0.32146375,0.32146375 0 0 0 -0.3214274,0.32091065 0.32146375,0.32146375 0 0 0 0.3214274,0.32194417 0.32146375,0.32146375 0 0 0 0.1235067,-0.0248047 0.15289758,0.15289758 0 0 0 0,-5.1677e-4 0.15289758,0.15289758 0 0 0 0.00103,-0.002584 0.15289758,0.15289758 0 0 0 5.168e-4,-0.00155 0.15289758,0.15289758 0 0 0 5.167e-4,-0.0015503 0.15289758,0.15289758 0 0 0 0,-0.0015503 0.15289758,0.15289758 0 0 0 5.168e-4,-0.0015503 0.15289758,0.15289758 0 0 0 5.168e-4,-0.0025838 0.15289758,0.15289758 0 0 0 5.167e-4,-0.0015503 0.15289758,0.15289758 0 0 0 5.168e-4,-0.0015503 0.15289758,0.15289758 0 0 0 5.168e-4,-0.0025838 0.15289758,0.15289758 0 0 0 0,-0.0015503 0.15289758,0.15289758 0 0 0 5.167e-4,-0.0015503 0.15289758,0.15289758 0 0 0 5.168e-4,-0.0025838 0.15289758,0.15289758 0 0 0 0,-0.0015503 0.15289758,0.15289758 0 0 0 5.168e-4,-0.0025838 0.15289758,0.15289758 0 0 0 5.167e-4,-0.0015503 0.15289758,0.15289758 0 0 0 0,-0.0025838 0.15289758,0.15289758 0 0 0 0,-0.0015503 0.15289758,0.15289758 0 0 0 5.168e-4,-0.0025838 0.15289758,0.15289758 0 0 0 0,-0.0015503 0.15289758,0.15289758 0 0 0 0,-0.0025838 0.15289758,0.15289758 0 0 0 5.167e-4,-0.0015503 0.15289758,0.15289758 0 0 0 0,-0.0025838 0.15289758,0.15289758 0 0 0 0,-0.0025838 0.15289758,0.15289758 0 0 0 0,-0.0015503 0.15289758,0.15289758 0 0 0 0,-0.0010335 0.15289758,0.15289758 0 0 0 0,-0.0067179 0.15289758,0.15289758 0 0 0 -0.00155,-0.01291911 0.15289758,0.15289758 0 0 0 -0.00155,-0.01085205 0.15289758,0.15289758 0 0 0 -0.00207,-0.0077515 0.15289758,0.15289758 0 0 0 -0.00155,-0.0067179 0.15289758,0.15289758 0 0 0 -0.00207,-0.00671794 A 0.15289758,0.15289758 0 0 0 -3.21014,0 a 0.15289758,0.15289758 0 0 0 -5.168e-4,-0.00206705 0.22461815,0.22461815 0 0 1 -0.1198893,0.03513997 0.22461815,0.22461815 0 0 1 -0.2242757,-0.22479248 0.22461815,0.22461815 0 0 1 0.2242757,-0.22427572 0.22461815,0.22461815 0 0 1 0.2211751,0.18965251 h 0.097152 a 0.32146375,0.32146375 0 0 0 -0.3183271,-0.28628744 z" />
      <path
         id="path3740"
         style="fill:#808080;fill-opacity:1;stroke-width:0;stroke-linecap:square;stroke-linejoin:round;stroke-dasharray:none;paint-order:fill markers stroke"
         d="m -3.9744344,-0.51263021 a 0.32146375,0.32146375 0 0 0 -0.3203939,0.32091065 0.32146375,0.32146375 0 0 0 0.3203939,0.32194417 0.32146375,0.32146375 0 0 0 0.00103,0 0.32146375,0.32146375 0 0 0 0.1782837,-0.05477702 0.15289758,0.15289758 0 0 0 0,-5.1676e-4 0.15289758,0.15289758 0 0 0 0,-5.1676e-4 0.15289758,0.15289758 0 0 0 0,-5.1677e-4 0.15289758,0.15289758 0 0 0 0,-5.1676e-4 0.15289758,0.15289758 0 0 0 5.167e-4,-5.1677e-4 0.15289758,0.15289758 0 0 0 0,-5.1676e-4 0.15289758,0.15289758 0 0 0 0,-5.1677e-4 0.15289758,0.15289758 0 0 0 0,-5.1676e-4 0.15289758,0.15289758 0 0 0 0,-5.1676e-4 0.15289758,0.15289758 0 0 0 0,-5.1677e-4 0.15289758,0.15289758 0 0 0 0,-5.1676e-4 0.15289758,0.15289758 0 0 0 0,-5.1677e-4 0.15289758,0.15289758 0 0 0 0,-5.1676e-4 0.15289758,0.15289758 0 0 0 0,-5.1677e-4 0.15289758,0.15289758 0 0 0 0,-5.1676e-4 0.15289758,0.15289758 0 0 0 0,-5.1676e-4 0.15289758,0.15289758 0 0 0 0,-5.1677e-4 0.15289758,0.15289758 0 0 0 5.168e-4,0 0.15289758,0.15289758 0 0 0 0,-5.1676e-4 0.15289758,0.15289758 0 0 0 0,-5.1677e-4 0.15289758,0.15289758 0 0 0 0,-5.1676e-4 0.15289758,0.15289758 0 0 0 0,-5.1677e-4 0.15289758,0.15289758 0 0 0 0,-5.1676e-4 0.15289758,0.15289758 0 0 0 0,-5.1676e-4 0.15289758,0.15289758 0 0 0 0,-5.1677e-4 0.15289758,0.15289758 0 0 0 0,-5.1676e-4 0.15289758,0.15289758 0 0 0 0,-5.1677e-4 0.15289758,0.15289758 0 0 0 0,-5.1676e-4 0.15289758,0.15289758 0 0 0 0,-5.1677e-4 0.15289758,0.15289758 0 0 0 0,-5.1676e-4 0.15289758,0.15289758 0 0 0 0,-5.1677e-4 0.15289758,0.15289758 0 0 0 0,-5.1676e-4 0.15289758,0.15289758 0 0 0 0,-5.1676e-4 0.15289758,0.15289758 0 0 0 0,-5.1677e-4 0.15289758,0.15289758 0 0 0 0,-5.1676e-4 0.15289758,0.15289758 0 0 0 0,-5.1677e-4 0.15289758,0.15289758 0 0 0 0,-5.1676e-4 0.15289758,0.15289758 0 0 0 0,-5.1677e-4 0.15289758,0.15289758 0 0 0 -0.025838,-0.08526611 0.22461815,0.22461815 0 0 1 -0.153479,0.06201172 0.22461815,0.22461815 0 0 1 -0.00103,0 0.22461815,0.22461815 0 0 1 -0.2232422,-0.22479248 0.22461815,0.22461815 0 0 1 0.2232422,-0.22427572 0.22461815,0.22461815 0 0 1 0.00103,0 0.22461815,0.22461815 0 0 1 0.2201416,0.18965251 h 0.098185 a 0.32146375,0.32146375 0 0 0 -0.3183268,-0.28628744 0.32146375,0.32146375 0 0 0 -0.00103,0 z" />
      <path
         id="path3744"
         style="fill:#808080;fill-opacity:1;stroke-width:0;stroke-linecap:square;stroke-linejoin:round;stroke-dasharray:none;paint-order:fill markers stroke"
         d="m -2.6876913,-0.51263021 a 0.32146375,0.32146375 0 0 0 -0.3214274,0.32091065 0.32146375,0.32146375 0 0 0 0.3214274,0.32194417 0.32146375,0.32146375 0 0 0 0.067179,-0.007235 0.15289758,0.15289758 0 0 0 0.014986,-0.0666626 0.15289758,0.15289758 0 0 0 -0.00465,-0.03720703 0.22461815,0.22461815 0 0 1 -0.077515,0.01395264 0.22461815,0.22461815 0 0 1 -0.2242757,-0.22479248 0.22461815,0.22461815 0 0 1 0.2242757,-0.22427572 0.22461815,0.22461815 0 0 1 0.2242757,0.22427572 0.22461815,0.22461815 0 0 1 -0.00775,0.0573608 c 0.027632,0.0270701 0.050716,0.05900401 0.067179,0.09456787 A 0.32146375,0.32146375 0 0 0 -2.3662626,-0.1917199 0.32146375,0.32146375 0 0 0 -2.68769,-0.51263055 Z" />
      <g
         id="g4324"
         transform="matrix(0.99310818,0,0,0.99310818,-4.8203498,-0.38794936)">
        <path
           id="path4092"
           style="fill:#808080;fill-opacity:1;stroke-width:0;stroke-linecap:square;stroke-linejoin:round;stroke-dasharray:none;paint-order:fill markers stroke"
           d="M 1.4412557,0.88004964 A 0.56126595,0.5293409 0 0 0 0.88004964,1.4092727 C 0.81223222,1.4408512 0.76584473,1.50507 0.76584473,1.5791294 v 0.8413291 c 0,0.1055897 0.0942293,0.1909133 0.21083984,0.1909133 H 1.9058268 c 0.1166106,0 0.2108399,-0.085323 0.2108399,-0.1909133 V 1.5791294 c 0,-0.074059 -0.046388,-0.1382782 -0.1142049,-0.1698567 A 0.56126595,0.5293409 0 0 0 1.4412557,0.88004964 Z m 0,0.12446806 A 0.4297052,0.40526339 0 0 1 1.8701701,1.3882161 H 1.0123413 A 0.4297052,0.40526339 0 0 1 1.4412557,1.0045177 Z" />
        <path
           id="path4207"
           style="fill:#1a1a1a;fill-opacity:1;stroke-width:0;stroke-linecap:square;stroke-linejoin:round;stroke-dasharray:none;paint-order:fill markers stroke"
           d="M 1.4412557,1.7545017 A 0.1110839,0.1110839 0 0 0 1.3301514,1.865606 0.1110839,0.1110839 0 0 0 1.3962974,1.9674086 l -0.044959,0.1679485 h 0.179834 L 1.4862142,1.9674086 A 0.1110839,0.1110839 0 0 0 1.55236,1.865606 0.1110839,0.1110839 0 0 0 1.4412557,1.7545017 Z" />
      </g>
    </g>
  </g>
</svg>
