<svg aria-hidden="true" style="position: absolute; width: 0; height: 0; overflow: hidden;" version="1.1" xmlns="http://www.w3.org/2000/svg" xmlns:xlink="http://www.w3.org/1999/xlink">
<defs>
<symbol id="cogwheel" viewBox="0 0 32 32">
<path d="M16 21.333c-2.946 0-5.333-2.388-5.333-5.333s2.388-5.333 5.333-5.333c2.945 0 5.333 2.388 5.333 5.333s-2.388 5.333-5.333 5.333zM16 18.667c1.473 0 2.667-1.194 2.667-2.667s-1.194-2.667-2.667-2.667c-1.473 0-2.667 1.194-2.667 2.667s1.194 2.667 2.667 2.667zM27.065 11.62c0.159 0.234 0.423 0.379 0.708 0.38h0.227c2.209 0 4 1.791 4 4s-1.791 4-4 4h-0.115c-0.345 0.001-0.657 0.208-0.793 0.525l-0.006 0.013c-0.143 0.324-0.074 0.703 0.163 0.945l0.079 0.079c0.751 0.75 1.173 1.768 1.173 2.83s-0.422 2.080-1.172 2.829c-0.75 0.751-1.768 1.173-2.83 1.173s-2.080-0.422-2.829-1.173l-0.070-0.070c-0.253-0.248-0.632-0.316-0.969-0.168-0.317 0.136-0.524 0.448-0.525 0.788v0.227c0 2.209-1.791 4-4 4s-4-1.791-4-4l0-0.089c-0.008-0.356-0.233-0.67-0.645-0.825-0.324-0.143-0.703-0.074-0.945 0.163l-0.079 0.079c-0.75 0.751-1.768 1.173-2.83 1.173s-2.080-0.422-2.829-1.172c-0.751-0.75-1.173-1.768-1.173-2.83s0.422-2.080 1.173-2.829l0.070-0.070c0.248-0.253 0.316-0.632 0.168-0.969-0.136-0.317-0.448-0.524-0.788-0.525h-0.227c-2.209 0-4-1.791-4-4s1.791-4 4-4l0.089 0c0.356-0.008 0.67-0.233 0.825-0.645 0.143-0.324 0.074-0.703-0.163-0.945l-0.079-0.079c-0.751-0.75-1.173-1.768-1.173-2.83s0.422-2.080 1.172-2.829c0.75-0.751 1.768-1.173 2.83-1.173s2.080 0.422 2.829 1.173l0.070 0.070c0.253 0.248 0.632 0.316 0.956 0.173 0.085-0.038 0.174-0.066 0.265-0.085 0.234-0.158 0.379-0.423 0.38-0.708v-0.227c0-2.209 1.791-4 4-4s4 1.791 4 4v0.115c0.001 0.345 0.208 0.657 0.538 0.799 0.324 0.143 0.703 0.074 0.945-0.163l0.079-0.079c0.75-0.751 1.768-1.173 2.83-1.173s2.080 0.422 2.829 1.172c0.751 0.75 1.173 1.768 1.173 2.83s-0.422 2.080-1.173 2.829l-0.070 0.070c-0.248 0.253-0.316 0.632-0.173 0.956 0.038 0.085 0.066 0.174 0.085 0.265zM27.88 17.333h0.12c0.736 0 1.333-0.597 1.333-1.333s-0.597-1.333-1.333-1.333h-0.232c-1.408-0.006-2.679-0.847-3.233-2.141-0.048-0.113-0.081-0.231-0.097-0.352-0.442-1.26-0.135-2.674 0.819-3.649l0.081-0.081c0.25-0.25 0.391-0.589 0.391-0.943s-0.141-0.693-0.392-0.944c-0.25-0.25-0.589-0.391-0.943-0.391s-0.693 0.141-0.944 0.392l-0.090 0.090c-1.033 1.010-2.576 1.29-3.884 0.712-1.294-0.555-2.136-1.825-2.141-3.239v-0.12c0-0.736-0.597-1.333-1.333-1.333s-1.333 0.597-1.333 1.333v0.232c-0.006 1.408-0.847 2.679-2.141 3.234-0.113 0.048-0.231 0.081-0.352 0.097-1.26 0.442-2.674 0.135-3.649-0.819l-0.081-0.081c-0.25-0.25-0.589-0.391-0.943-0.391s-0.693 0.141-0.944 0.392c-0.25 0.25-0.391 0.589-0.391 0.943s0.141 0.693 0.392 0.944l0.090 0.090c1.010 1.033 1.29 2.576 0.738 3.819-0.501 1.362-1.783 2.279-3.265 2.313h-0.12c-0.736 0-1.333 0.597-1.333 1.333s0.597 1.333 1.333 1.333h0.232c1.408 0.006 2.679 0.847 3.228 2.128 0.583 1.321 0.303 2.865-0.717 3.908l-0.081 0.081c-0.25 0.25-0.391 0.589-0.391 0.943s0.141 0.693 0.392 0.944c0.25 0.25 0.589 0.391 0.943 0.391s0.693-0.141 0.944-0.392l0.090-0.090c1.033-1.010 2.576-1.29 3.819-0.738 1.362 0.501 2.279 1.783 2.313 3.265v0.12c0 0.736 0.597 1.333 1.333 1.333s1.333-0.597 1.333-1.333v-0.232c0.006-1.408 0.847-2.679 2.128-3.228 1.321-0.583 2.865-0.303 3.908 0.717l0.081 0.081c0.25 0.25 0.589 0.391 0.943 0.391s0.693-0.141 0.944-0.392c0.25-0.25 0.391-0.589 0.391-0.943s-0.141-0.693-0.392-0.944l-0.090-0.090c-1.008-1.031-1.289-2.571-0.709-3.891 0.556-1.291 1.825-2.129 3.236-2.135z"></path>
</symbol>
<symbol id="check" viewBox="0 0 32 32">
<path d="M32 16c0 8.837-7.163 16-16 16s-16-7.163-16-16c0-8.837 7.163-16 16-16s16 7.163 16 16zM16 2.667c-7.364 0-13.333 5.97-13.333 13.333s5.97 13.333 13.333 13.333c7.364 0 13.333-5.97 13.333-13.333s-5.97-13.333-13.333-13.333zM10.276 16.391l3.057 3.057 8.391-8.391c0.521-0.521 1.365-0.521 1.886 0s0.521 1.365 0 1.886l-9.333 9.333c-0.521 0.521-1.365 0.521-1.886 0l-4-4c-0.521-0.521-0.521-1.365 0-1.886s1.365-0.521 1.886 0z"></path>
</symbol>
<symbol id="file" viewBox="0 0 32 32">
<path d="M6.667 9.333v18.667c0 0.736 0.597 1.333 1.333 1.333h16c0.736 0 1.333-0.597 1.333-1.333v-24c0-0.736-0.597-1.333-1.333-1.333h-10.667v5.333c0 0.736-0.597 1.333-1.333 1.333h-5.333zM6.835 6.667h3.832v-3.832c-1.874 0.482-3.35 1.958-3.832 3.832zM24 0c2.209 0 4 1.791 4 4v24c0 2.209-1.791 4-4 4h-16c-2.209 0-4-1.791-4-4v-20c0-4.418 3.582-8 8-8h12zM10.667 14.667c-0.736 0-1.333-0.597-1.333-1.333s0.597-1.333 1.333-1.333h10.667c0.736 0 1.333 0.597 1.333 1.333s-0.597 1.333-1.333 1.333h-10.667zM10.667 20c-0.736 0-1.333-0.597-1.333-1.333s0.597-1.333 1.333-1.333h10.667c0.736 0 1.333 0.597 1.333 1.333s-0.597 1.333-1.333 1.333h-10.667zM10.667 25.333c-0.736 0-1.333-0.597-1.333-1.333s0.597-1.333 1.333-1.333h10.667c0.736 0 1.333 0.597 1.333 1.333s-0.597 1.333-1.333 1.333h-10.667z"></path>
</symbol>
<symbol id="database" viewBox="0 0 32 32">
<path d="M31.306 25.837c-9.485 5.417-21.127 5.417-30.611 0-0.414-0.226-0.694-0.666-0.694-1.17v-9.31c-0-0.016-0-0.032 0-0.048v-7.951c-0-0.024-0-0.049 0.001-0.073-0.018-0.48 0.225-0.952 0.67-1.207 9.497-5.435 21.161-5.435 30.657 0 0.445 0.255 0.688 0.728 0.67 1.207 0.001 0.024 0.001 0.049 0.001 0.073v7.951c0 0.016 0 0.032 0 0.048v9.31c0 0.505-0.28 0.944-0.694 1.17zM29.333 23.881v-6.325c-8.411 4.1-18.255 4.1-26.666 0v6.325c8.325 4.469 18.341 4.469 26.666 0zM29.333 9.538c-8.426 4.038-18.24 4.038-26.666 0v5.017c8.305 4.546 18.361 4.546 26.666 0v-5.017zM4.137 7.283c7.52 3.489 16.206 3.489 23.725 0-7.52-3.489-16.206-3.489-23.725 0z"></path>
</symbol>
<symbol id="chart" viewBox="0 0 32 32">
<path d="M14.837 17.716l-7.227 7.227c-0.521 0.521-1.365 0.521-1.886 0s-0.521-1.365 0-1.886l8-8c0.449-0.449 1.154-0.519 1.682-0.167l3.091 2.060 8.56-8.56c0.521-0.521 1.365-0.521 1.886 0s0.521 1.365 0 1.886l-9.333 9.333c-0.449 0.449-1.154 0.519-1.682 0.167l-3.091-2.060zM0 1.333c0-0.736 0.597-1.333 1.333-1.333s1.333 0.597 1.333 1.333v26.667c0 0.736 0.597 1.333 1.333 1.333h26.667c0.736 0 1.333 0.597 1.333 1.333s-0.597 1.333-1.333 1.333h-26.667c-2.209 0-4-1.791-4-4v-26.667z"></path>
</symbol>
<symbol id="dashboard" viewBox="0 0 32 32">
<path d="M4 2.667c-0.736 0-1.333 0.597-1.333 1.333v4c0 0.736 0.597 1.333 1.333 1.333h4c0.736 0 1.333-0.597 1.333-1.333v-4c0-0.736-0.597-1.333-1.333-1.333h-4zM4 0h4c2.209 0 4 1.791 4 4v4c0 2.209-1.791 4-4 4h-4c-2.209 0-4-1.791-4-4v-4c0-2.209 1.791-4 4-4zM18.667 21.333h9.333c2.209 0 4 1.791 4 4v2.667c0 2.209-1.791 4-4 4h-9.333c-2.209 0-4-1.791-4-4v-2.667c0-2.209 1.791-4 4-4zM18.667 24c-0.736 0-1.333 0.597-1.333 1.333v2.667c0 0.736 0.597 1.333 1.333 1.333h9.333c0.736 0 1.333-0.597 1.333-1.333v-2.667c0-0.736-0.597-1.333-1.333-1.333h-9.333zM4 14.667h4c2.209 0 4 1.791 4 4v9.333c0 2.209-1.791 4-4 4h-4c-2.209 0-4-1.791-4-4v-9.333c0-2.209 1.791-4 4-4zM4 17.333c-0.736 0-1.333 0.597-1.333 1.333v9.333c0 0.736 0.597 1.333 1.333 1.333h4c0.736 0 1.333-0.597 1.333-1.333v-9.333c0-0.736-0.597-1.333-1.333-1.333h-4zM28 0c2.209 0 4 1.791 4 4v10.667c0 2.209-1.791 4-4 4h-9.333c-2.209 0-4-1.791-4-4v-10.667c0-2.209 1.791-4 4-4h9.333zM17.333 4v10.667c0 0.736 0.597 1.333 1.333 1.333h9.333c0.736 0 1.333-0.597 1.333-1.333v-10.667c0-0.736-0.597-1.333-1.333-1.333h-9.333c-0.736 0-1.333 0.597-1.333 1.333z"></path>
</symbol>
<symbol id="euro" viewBox="0 0 32 32">
<path d="M4.433 17.778c-0.065-0.584-0.089-1.177-0.089-1.778s0.014-1.194 0.079-1.778h-2.301c-0.982 0-1.717-0.369-1.717-1.351s0.776-1.333 1.758-1.333h2.734c2.196-6.214 8.037-11.538 15.004-11.538 2.815 0 5.528 0.729 7.922 2.096 0.853 0.487 1.149 1.066 0.663 1.919s-0.979 0.965-1.832 0.478c-1.86-1.062-4.56-1.826-6.753-1.826-4.964 0-10.34 4.667-12.337 8.871h8.802c0.982 0 1.677 0.351 1.677 1.333s-0.715 1.351-1.697 1.351h-9.219c-0.083 0.581-0.115 1.174-0.115 1.778s0.052 1.197 0.135 1.778h9.198c0.982 0 1.704 0.343 1.704 1.325s-0.751 1.334-1.733 1.333l-8.753-0.007c1.997 4.204 7.373 8.904 12.337 8.904 2.149 0 4.612-0.636 6.446-1.658 0.858-0.478 1.543-0.454 2.021 0.403s0.17 1.428-0.687 1.906c-2.359 1.315-5.021 2.015-7.779 2.015-6.967 0-12.807-5.357-15.004-11.571l-2.803 0.007c-0.982 0.003-1.749-0.351-1.749-1.333s0.796-1.325 1.778-1.325z"></path>
</symbol>
</defs>
</svg>
